<svg width="26" height="26" viewBox="0 0 26 26" fill="none" xmlns="http://www.w3.org/2000/svg">
<path d="M24.2013 2.80537C24.2013 1.28564 22.9742 0.0379475 21.4581 0.00457199V0H4.58293C3.04765 0 1.79858 1.24861 1.79858 2.78434V26L10.4854 20.2091L19.1722 26V11.43H24.2013V2.80537ZM18.2578 24.2919L10.4854 19.11L2.71298 24.2919V2.78434C2.71298 1.75336 3.55194 0.914398 4.58293 0.914398H19.2206C18.7712 1.35422 18.4516 1.92572 18.3222 2.56534L18.3218 2.56672C18.3012 2.66821 18.2852 2.77154 18.2747 2.87624C18.2637 2.98277 18.2578 3.09112 18.2578 3.20039V11.43V24.2919ZM23.2869 10.5156H19.1722V3.20039C19.1722 3.04495 19.1882 2.89361 19.2179 2.74685C19.3948 1.88275 20.0673 1.19283 20.9223 0.98435C20.9388 0.980235 20.9534 0.97292 20.9699 0.969719C21.081 0.945031 21.1975 0.936344 21.3141 0.929029C21.3521 0.926743 21.3882 0.918056 21.4266 0.917599C22.4535 0.934515 23.2869 1.77759 23.2869 2.80537V10.5156Z" fill="#4C7EA1"/>
<path d="M2 25V2L3.5 0.5H18.5H20L18.5 2.5V25L10.5 19.5L2 25Z" fill="#4C7EA2"/>
</svg>
