<?xml version="1.0" encoding="UTF-8"?>
<svg width="223px" height="172px" viewBox="0 0 223 172" version="1.1" xmlns="http://www.w3.org/2000/svg" xmlns:xlink="http://www.w3.org/1999/xlink">
    <!-- Generator: Sketch 57.1 (83088) - https://sketch.com -->
    <title>email</title>
    <desc>Created with Sketch.</desc>
    <g id="Page-1" stroke="none" stroke-width="1" fill="none" fill-rule="evenodd">
        <g id="email" transform="translate(3.000000, 3.000000)" fill="#4D7FA2" fill-rule="nonzero" stroke="#4D7FA2" stroke-width="5">
            <path d="M197.927734,0 L19.0722656,0 C8.56895703,0 0,8.59624615 0,19.1538462 L0,146.846154 C0,157.368 8.5308125,166 19.0722656,166 L197.927734,166 C208.404766,166 217,157.432697 217,146.846154 L217,19.1538462 C217,8.632 208.469188,0 197.927734,0 Z M195.902778,13.5818182 L109.626586,99.6 L22.6041667,13.5818182 L195.902778,13.5818182 Z M12.0555556,143.363636 L12.0555556,21.1272727 L73.8402778,81.9822622 L12.0555556,143.363636 Z M21.0972222,153.927273 L82.2675607,92.0545455 L103.701509,113.548438 C106.182679,116.0367 110.186656,116.028569 112.657672,113.528751 L133.556797,92.3896519 L194.395833,153.927273 L21.0972222,153.927273 Z M203.4375,143.363636 L143.159722,82.2456671 L203.4375,21.1272727 L203.4375,143.363636 Z" id="Shape"></path>
        </g>
    </g>
</svg>