<?xml version="1.0" encoding="UTF-8"?>
<svg width="264px" height="251px" viewBox="0 0 264 251" version="1.1" xmlns="http://www.w3.org/2000/svg" xmlns:xlink="http://www.w3.org/1999/xlink">
    <!-- Generator: Sketch 57.1 (83088) - https://sketch.com -->
    <title>percent</title>
    <desc>Created with Sketch.</desc>
    <g id="Page-1" stroke="none" stroke-width="1" fill="none" fill-rule="evenodd">
        <g id="percent" fill="#4D7FA2" fill-rule="nonzero">
            <path d="M193.882,2.561 C186.499,-1.195 177.468,1.748 173.713,9.134 L62.153,228.556 C58.398,235.941 61.341,244.97 68.726,248.725 C70.904,249.832 73.225,250.357 75.512,250.357 C80.978,250.357 86.247,247.359 88.895,242.152 L200.455,22.73 C204.21,15.345 201.267,6.316 193.882,2.561 Z" id="Path"></path>
            <path d="M113.778,74.818 C113.778,43.449 88.257,17.928 56.888,17.928 C25.521,17.928 0,43.449 0,74.818 C0,106.186 25.521,131.707 56.889,131.707 C88.258,131.707 113.778,106.186 113.778,74.818 Z M56.889,101.707 C42.063,101.707 30,89.644 30,74.818 C30,59.991 42.063,47.928 56.889,47.928 C71.716,47.928 83.779,59.99 83.779,74.818 C83.778,89.644 71.716,101.707 56.889,101.707 Z" id="Shape"></path>
            <path d="M206.396,119.58 C175.027,119.58 149.506,145.101 149.506,176.469 C149.506,207.837 175.026,233.358 206.396,233.358 C237.764,233.358 263.285,207.838 263.285,176.469 C263.285,145.1 237.765,119.58 206.396,119.58 Z M206.396,203.357 C191.569,203.357 179.506,191.294 179.506,176.468 C179.506,161.642 191.569,149.579 206.396,149.579 C221.222,149.579 233.285,161.642 233.285,176.468 C233.285,191.294 221.223,203.357 206.396,203.357 Z" id="Shape"></path>
        </g>
    </g>
</svg>