<svg width="56" height="62" viewBox="0 0 56 62" fill="none" xmlns="http://www.w3.org/2000/svg">
<path d="M54.5593 52.1036L32.5875 28.0854L6.91708 0.0244141H4.91093L4.50129 1.16224C3.42013 4.16549 2.95818 7.23718 3.16557 10.0448C3.40196 13.2452 4.51421 16.0161 6.38225 18.0581L26.4219 39.964L29.0651 37.0746L47.5918 59.7202C49.4347 61.7348 52.6069 61.8545 54.5593 59.7202C56.4804 57.6202 56.4804 54.2035 54.5593 52.1036Z" fill="#FF5E03"/>
<path d="M17.1356 34.8903L1.44067 52.047C-0.480225 54.1468 -0.480225 57.5636 1.44067 59.6634C3.26548 61.6582 6.42229 61.8343 8.4082 59.6634L24.1033 42.5066L17.1356 34.8903Z" fill="#FF5E03"/>
<path d="M53.6367 10.223L44.7336 19.9551L42.4109 17.4163L51.314 7.6841L48.9915 5.14528L40.0885 14.8773L37.7659 12.3385L46.669 2.60645L44.3466 0.067749L32.7338 12.7619C31.3132 14.3148 30.4649 16.3768 30.345 18.5682C30.3147 19.1234 30.1995 19.6695 30.0085 20.189L37.5522 28.4351C38.0274 28.2261 38.5271 28.1003 39.0349 28.0672C41.0396 27.9364 42.9259 27.0089 44.3466 25.456L55.9594 12.762L53.6367 10.223Z" fill="#FF5E03"/>
</svg>
