<svg width="62" height="64" viewBox="0 0 62 64" fill="none" xmlns="http://www.w3.org/2000/svg">
<path d="M20.4217 42.0498C20.4217 35.6899 27.9663 34.6726 27.9663 31.1689C27.9663 29.6295 26.8764 28.7091 25.5126 28.7091C23.6269 28.7091 22.6035 30.7967 22.6035 30.7967L20.4218 29.2068C20.4218 29.2068 21.8984 25.6789 25.7624 25.6789C28.6029 25.6789 31.0123 27.5661 31.0123 30.8958C31.0123 36.5599 23.786 37.5288 23.7175 40.8584H31.2621V43.6155H20.5586C20.4902 43.0452 20.4217 42.5475 20.4217 42.0498ZM32.9054 37.1061L39.8598 25.9762H43.3368V36.4102H45.428V39.0703H43.3368V43.6157H40.4501V39.0703H32.9054V37.1061ZM40.45 36.4102V30.9465C40.45 30.0768 40.5647 29.1078 40.5647 29.1078H40.5184C40.5184 29.1078 40.1557 30.0504 39.7227 30.722L35.9957 36.3617V36.4102H40.45ZM54.6832 35.4752L54.1217 37.674C50.9298 50.1725 39.2828 58.0593 27.7615 54.9334C16.6953 51.9312 9.81775 40.2096 11.4715 28.2676L14.8059 29.2851C15.5788 29.521 16.2955 28.7537 16.0959 27.904L12.4697 12.4688C12.2701 11.6192 11.304 11.3244 10.7306 11.9382L0.313726 23.0879C-0.259672 23.7016 -0.0102539 24.7638 0.762821 24.9997L4.39225 26.1072C1.6837 42.2612 10.8004 58.35 25.6776 62.5849C41.1258 66.9825 56.8826 56.5298 61.175 39.7223L61.7118 37.6202C61.8666 37.014 61.5426 36.3855 60.9881 36.2162L55.9676 34.6841C55.413 34.5148 54.838 34.8691 54.6832 35.4752ZM60.6157 25.8573L55.3507 26.605C54.7798 26.6861 54.3772 27.2577 54.4512 27.8819L54.6587 29.6274C54.7329 30.2515 55.2559 30.6917 55.8268 30.6105L61.0917 29.8628C61.6627 29.7818 62.0653 29.2101 61.9912 28.586L61.7836 26.8405C61.7096 26.2164 61.1866 25.7762 60.6157 25.8573ZM56.5626 14.982L51.9374 17.8313C51.4358 18.1403 51.2583 18.8352 51.541 19.3836L52.3315 20.917C52.6141 21.4653 53.2498 21.6593 53.7515 21.3503L58.3767 18.5011C58.8783 18.1921 59.0557 17.4972 58.7731 16.9488L57.9826 15.4153C57.6999 14.8671 57.0641 14.673 56.5626 14.982ZM49.0779 6.55833L45.7658 11.0941C45.4065 11.5859 45.4803 12.3031 45.9302 12.6955L47.1887 13.7936C47.6386 14.1863 48.2946 14.1058 48.6537 13.6139L51.9659 9.07815C52.3251 8.58623 52.2514 7.86918 51.8014 7.4766L50.5429 6.37849C50.093 5.98602 49.437 6.06642 49.0779 6.55833ZM39.2514 1.81294L37.7349 7.37472C37.5703 7.97782 37.8844 8.61259 38.436 8.79233L39.9792 9.29509C40.5308 9.47494 41.1115 9.13164 41.276 8.52865L42.7926 2.96687C42.957 2.36377 42.6431 1.72911 42.0914 1.54926L40.5483 1.04649C39.9965 0.86665 39.4158 1.20984 39.2514 1.81294ZM28.5143 1.43697L29.014 7.21481C29.0682 7.84139 29.5769 8.3013 30.15 8.24205L31.7531 8.07627C32.3263 8.01702 32.747 7.4611 32.6928 6.83452L32.1929 1.05668C32.1387 0.430107 31.6301 -0.0296932 31.057 0.0295536L29.4539 0.195223C28.8808 0.25447 28.4601 0.810394 28.5143 1.43697ZM18.4302 5.48524L20.8736 10.6376C21.1385 11.1963 21.7677 11.4145 22.2789 11.1248L23.7085 10.3148C24.2196 10.0251 24.4191 9.3374 24.1541 8.77859L21.7107 3.62622C21.4458 3.06753 20.8166 2.84937 20.3054 3.13907L18.8758 3.94915C18.3647 4.23863 18.1653 4.92644 18.4302 5.48524Z" fill="#FF5E03"/>
</svg>
