<svg width="64" height="67" viewBox="0 0 64 67" fill="none" xmlns="http://www.w3.org/2000/svg">
<path d="M57.0773 43.2644C56.246 43.2644 55.1241 44.2054 54.0392 45.1156C52.5315 46.3805 50.8226 47.8143 48.7181 47.8143C46.6136 47.8143 44.9048 46.3806 43.3971 45.1156C42.3123 44.2054 41.1905 43.2644 40.3591 43.2644C39.5277 43.2644 38.406 44.2056 37.3211 45.1156C35.8134 46.3805 34.1045 47.8143 32 47.8143C29.8955 47.8143 28.1866 46.3806 26.679 45.1158C25.5941 44.2056 24.4724 43.2644 23.6409 43.2644C22.8096 43.2644 21.6877 44.2056 20.6029 45.1156C19.0951 46.3805 17.3864 47.8143 15.2819 47.8143C13.1774 47.8143 11.4684 46.3805 9.96075 45.1156C8.87587 44.2054 7.75413 43.2644 6.92275 43.2644C5.78088 43.2644 4.44425 44.2716 3.02925 45.3379C2.06312 46.0658 1.0705 46.8127 0 47.3444V57.9124C0.294875 57.699 0.59525 57.4728 0.900875 57.2425C2.64125 55.9311 4.61363 54.4449 6.92275 54.4449C9.02725 54.4449 10.7361 55.8785 12.2437 57.1434C13.3286 58.0536 14.4504 58.9948 15.2819 58.9948C16.1131 58.9948 17.235 58.0536 18.3199 57.1435C19.8276 55.8787 21.5364 54.4449 23.6409 54.4449C25.7454 54.4449 27.4544 55.8787 28.962 57.1435C30.0469 58.0537 31.1686 58.9948 32 58.9948C32.8314 58.9948 33.9531 58.0536 35.038 57.1435C36.5457 55.8787 38.2546 54.4449 40.3591 54.4449C42.4636 54.4449 44.1725 55.8785 45.6801 57.1435C46.765 58.0537 47.8867 58.9948 48.7181 58.9948C49.5495 58.9948 50.6714 58.0536 51.7562 57.1434C53.264 55.8785 54.9728 54.4449 57.0773 54.4449C59.3864 54.4449 61.3587 55.9311 63.0991 57.2425C63.4048 57.4727 63.7051 57.699 64 57.9124V47.3444C62.9295 46.8127 61.9369 46.0658 60.9709 45.3379C59.5557 44.2716 58.2191 43.2644 57.0773 43.2644Z" fill="#FF5E03"/>
<path d="M19.75 24.5613H38V32.2134H19.75V24.5613Z" fill="#FF5E03"/>
<path d="M57.0773 58.5442C56.246 58.5442 55.1241 59.4852 54.0392 60.3954C52.5315 61.6603 50.8226 63.0941 48.7181 63.0941C46.6136 63.0941 44.9048 61.6604 43.3971 60.3954C42.3123 59.4852 41.1905 58.5442 40.3591 58.5442C39.5277 58.5442 38.406 59.4854 37.3211 60.3954C35.8134 61.6603 34.1045 63.0941 32 63.0941C29.8955 63.0941 28.1866 61.6604 26.679 60.3955C25.5941 59.4854 24.4724 58.5442 23.6409 58.5442C22.8096 58.5442 21.6877 59.4854 20.6029 60.3954C19.0951 61.6603 17.3864 63.0941 15.2819 63.0941C13.1774 63.0941 11.4684 61.6603 9.96075 60.3954C8.87587 59.4852 7.75413 58.5442 6.92275 58.5442C5.78088 58.5442 4.44438 59.5514 3.02925 60.6176C2.06312 61.3456 1.0705 62.0925 0 62.6243V64.5971C0 65.729 0.8395 66.6467 1.875 66.6467H62.125C63.1605 66.6467 64 65.729 64 64.5971V62.6243C62.9295 62.0926 61.9369 61.3457 60.9709 60.6177C59.5556 59.5514 58.2191 58.5442 57.0773 58.5442Z" fill="#FF5E03"/>
<path d="M62.125 11.717H41.75V7.10532C41.75 5.44773 42.9836 4.09923 44.5 4.09923H44.8751C46.3914 4.09923 47.625 5.44773 47.625 7.10532V7.61773H51.375V7.10532C51.375 3.18742 48.4591 0 44.8751 0H44.5C40.9159 0 38 3.18742 38 7.10532V11.717H19.75V7.10532C19.75 5.44773 20.9836 4.09923 22.5 4.09923H22.8751C24.3914 4.09923 25.625 5.44773 25.625 7.10532V7.61773H29.375V7.10532C29.375 3.18742 26.4591 0 22.8751 0H22.5C18.9159 0 16 3.18742 16 7.10532V11.717H1.875C0.8395 11.717 0 12.6346 0 13.7666V42.6326C0.294875 42.4192 0.59525 42.1931 0.900875 41.9628C2.64112 40.6515 4.61363 39.1651 6.92275 39.1651C9.02725 39.1651 10.7361 40.5987 12.2437 41.8636C13.3286 42.7738 14.4504 43.715 15.2819 43.715C15.5026 43.715 15.7444 43.6471 16 43.5326V11.717H19.75V20.462H38V11.717H41.75V39.3736C43.2385 39.8161 44.5191 40.8895 45.6801 41.8636C46.765 42.7738 47.8867 43.7148 48.7181 43.7148C49.5495 43.7148 50.6714 42.7736 51.7562 41.8635C53.264 40.5986 54.9728 39.165 57.0773 39.165C59.3864 39.165 61.3589 40.6512 63.0991 41.9627C63.4048 42.1929 63.7051 42.4191 64 42.6325V13.7666C64 12.6345 63.1605 11.717 62.125 11.717Z" fill="#FF5E03"/>
<path d="M19.75 40.7131C20.8986 39.8623 22.1735 39.1651 23.6409 39.1651C25.7454 39.1651 27.4544 40.5989 28.962 41.8638C30.0469 42.7739 31.1686 43.715 32 43.715C32.8314 43.715 33.9531 42.7738 35.038 41.8638C35.9395 41.1075 36.9131 40.291 38 39.7566V36.3126H19.75V40.7131Z" fill="#FF5E03"/>
</svg>
