<svg width="51" height="58" viewBox="0 0 51 58" fill="none" xmlns="http://www.w3.org/2000/svg">
<path d="M25.0387 18.9813C23.7154 18.9813 22.8426 19.1203 22.3398 19.2605V28.5403C22.9141 28.6805 23.5883 28.7264 24.5268 28.7264C27.9827 28.7264 30.1152 26.8134 30.1152 23.5977C30.1163 20.7058 28.28 18.9813 25.0387 18.9813Z" fill="#FF5E03"/>
<path d="M44.8238 0.396973H6.17738C2.76467 0.396973 0 3.42035 0 7.14964V50.6518C0 54.3811 2.76581 57.4032 6.17738 57.4032H44.8238C48.2365 57.4032 51 54.3798 51 50.6518V7.14964C51.0011 3.41911 48.2365 0.396973 44.8238 0.396973ZM47.1946 49.5687C47.1946 51.5996 45.6897 53.2422 43.8341 53.2422H7.09667C5.23994 53.2422 3.73503 51.5971 3.73503 49.5687V8.31085C3.73503 6.28245 5.23994 4.63739 7.09667 4.63739H43.833C45.6897 4.63739 47.1935 6.28245 47.1935 8.31085L47.1946 49.5687Z" fill="#FF5E03"/>
<path d="M43.8329 7.229H7.09666C6.54963 7.229 6.10474 7.71285 6.10474 8.31207V49.5701C6.10474 50.1656 6.54849 50.6532 7.09666 50.6532H43.8329C44.3788 50.6532 44.8237 50.1669 44.8237 49.5701V8.31083C44.8237 7.71285 44.38 7.229 43.8329 7.229ZM33.9217 30.874C31.7052 33.158 28.4094 34.184 24.5688 34.184C23.7165 34.184 22.9867 34.1368 22.3398 34.0438V45.3111H15.9468V14.2708C17.9579 13.8973 20.7543 13.617 24.722 13.617C28.7328 13.617 31.5837 14.4569 33.5052 16.1367C35.3381 17.7209 36.5728 20.3337 36.5728 23.4104C36.5728 26.4909 35.6309 29.1036 33.9217 30.874Z" fill="#FF5E03"/>
</svg>
