<svg width="64" height="53" viewBox="0 0 64 53" fill="none" xmlns="http://www.w3.org/2000/svg">
<path d="M10.3241 24.5075C9.00035 25.9545 9.00035 28.3095 10.3241 29.7708C11.6479 31.2178 13.8023 31.2178 15.1391 29.7708C24.3017 19.7549 39.2137 19.7549 48.3763 29.7708C49.0382 30.4943 49.9077 30.8632 50.7773 30.8632C51.6468 30.8632 52.5164 30.4943 53.1782 29.7708C54.502 28.3237 54.502 25.9687 53.1782 24.5075C41.3681 11.5833 22.1343 11.5833 10.3241 24.5075Z" fill="#FF5E03"/>
<path d="M19.5127 34.5519C18.189 35.9989 18.189 38.354 19.5127 39.8152C20.8365 41.2623 22.9909 41.2623 24.3277 39.8152C28.4158 35.3321 35.0866 35.3321 39.1748 39.8152C39.8367 40.5387 40.7062 40.9076 41.5757 40.9076C42.4453 40.9076 43.3148 40.5387 43.9767 39.8152C45.3005 38.3681 45.3005 36.0131 43.9767 34.5661C37.241 27.1747 26.2614 27.1747 19.5127 34.5519Z" fill="#FF5E03"/>
<path d="M31.7513 52.8672C34.2528 52.8672 36.2807 50.6504 36.2807 47.916C36.2807 45.1815 34.2528 42.9647 31.7513 42.9647C29.2498 42.9647 27.2219 45.1815 27.2219 47.916C27.2219 50.6504 29.2498 52.8672 31.7513 52.8672Z" fill="#FF5E03"/>
<path d="M62.5097 14.293C45.5471 -4.23503 17.9554 -4.23503 0.992835 14.293C-0.330945 15.74 -0.330945 18.095 0.992835 19.5563C2.31661 21.0034 4.471 21.0034 5.80776 19.5563C20.1098 3.90821 43.3927 3.90821 57.7077 19.5563C58.3696 20.2798 59.2392 20.6487 60.1087 20.6487C60.9782 20.6487 61.8478 20.2798 62.5097 19.5563C63.8334 18.1092 63.8334 15.7542 62.5097 14.293Z" fill="#FF5E03"/>
</svg>
